<svg width="115" height="38" viewBox="0 0 115 38" fill="none" xmlns="http://www.w3.org/2000/svg">
<path d="M40.1992 4.21507C40.1992 6.54298 38.312 8.43013 35.9841 8.43013C33.6562 8.43013 31.769 6.54298 31.769 4.21507C31.769 1.88715 33.6562 0 35.9841 0C38.312 0 40.1992 1.88715 40.1992 4.21507Z" fill="#FF0000"/>
<path d="M16.3919 11.4745C7.88374 16.1579 2.3417 25.5767 0 29.6617C1.87336 13.4259 19.28 4.83962 23.5732 3.12237C27.8663 1.40512 30.5202 1.63929 30.9105 5.38602C31.2227 8.3834 26.4613 9.28886 24.0415 9.36692L23.5732 8.11801C18.2028 9.67914 12.8534 16.1058 10.8499 19.124C12.2237 15.8769 15.117 12.6713 16.3919 11.4745Z" fill="#FF0000"/>
<path d="M20.5762 11.5649H15.3776L12.4739 27.9569H28.6316L29.4512 23.4842H18.4686L20.5762 11.5649Z" fill="white"/>
<path d="M29.5683 27.9569H34.8371L37.7409 11.5649H32.472L29.5683 27.9569Z" fill="white"/>
<path d="M52.5188 21.6811L43.9248 11.5649H39.499L36.5953 27.9569H41.6065L43.433 17.6065L52.191 27.9569H56.4061L59.3098 11.5649H54.2985L52.5188 21.6811Z" fill="white"/>
<path d="M60.1383 11.5649L59.3422 16.0376H66.0394L63.9319 27.9569H69.1305L71.238 16.0376H77.9353L78.7315 11.5649H60.1383Z" fill="white"/>
<path d="M93.989 27.9569L88.5328 11.5649H82.6551L71.3681 27.9569H77.316L79.0021 25.3107H87.6664L88.4157 27.9569H93.989ZM84.9968 15.8503L86.6594 21.7279H81.2735L84.9968 15.8503Z" fill="white"/>
<path d="M94.194 24.0696C93.7491 26.6221 94.8497 27.9569 97.3788 27.9569H109.556C112.085 27.9569 113.232 26.9968 113.677 24.4443L114.122 21.9387C114.567 19.4096 113.466 18.2388 110.914 18.0515L101.711 17.466C100.985 17.3958 100.844 17.2084 100.962 16.4357L101.008 16.1313C101.125 15.3585 101.406 15.1009 102.156 15.1009H108.9C109.673 15.1009 109.907 15.3585 109.813 16.1313L109.743 16.5996H114.754L114.918 15.4522C115.316 12.8529 114.262 11.5649 111.757 11.5649H100.142C97.5895 11.5649 96.4421 12.525 95.9737 15.0775L95.5991 17.2787C95.1541 19.7843 96.2547 20.9552 98.8072 21.1425L108.01 21.7045C108.736 21.7748 108.9 22.0089 108.783 22.7817L108.689 23.3671C108.525 24.1399 108.291 24.3975 107.518 24.3975H100.212C99.4395 24.3975 99.2053 24.1165 99.3224 23.3671L99.4395 22.688H94.4048L94.194 24.0696Z" fill="white"/>
<path fill-rule="evenodd" clip-rule="evenodd" d="M17.3272 33.5769H13.5667V34.1763H15.0618V37.0114H15.832V34.1763H17.3272V33.5769ZM13.7226 33.7065V34.0467H13.7228V33.733H17.1713V33.7065H13.7226ZM15.6761 36.8553H15.2179V34.0675H15.2177V36.8818H15.6761V36.8553ZM29.0452 36.8553V36.8818H25.9567V33.7065H28.9907V33.733H25.9568V36.8553H29.0452ZM26.4152 35.0673V35.0711H28.7724V35.0673H26.4152ZM28.7724 35.3699V35.3713H26.4152V35.3699H28.7724ZM29.2012 36.4301H26.571V35.5009H28.9283V34.9377H26.571V34.1582H29.1466V33.5769H25.8008V37.0114H29.2012V36.4301ZM41.3191 33.733H40.6566L38.3866 35.2049V35.2034L40.6565 33.7065H41.3604L41.3191 33.733ZM38.9601 35.2447L38.9595 35.2451L39.0247 35.2884L38.9601 35.2447ZM41.343 36.8553H40.6839L38.3866 35.2941V35.2942L40.6838 36.8818H41.3823L41.343 36.8553ZM38.3865 36.8553H37.9282V33.733H38.3865V33.7065H37.9281V36.8818H38.3865V36.8553ZM40.6022 33.5769L38.5424 34.9352V33.5769H37.7722V37.0114H38.5424V35.5704L40.6274 37.0114H41.8212L39.2106 35.247L41.8183 33.5769H40.6022ZM52.2003 35.2899L50.5001 33.7065H50.1126V36.8818H50.5601V36.8553H50.1127V33.733H50.5001L52.2003 35.2899ZM53.2667 36.2665L53.2668 36.2665V33.733H53.7142V33.7065H53.2667V36.2665ZM53.7142 36.8553H53.3541L51.6457 35.2897L53.354 36.8818H53.7142V36.8553ZM50.716 37.0114V34.6181L53.2842 37.0114H53.8701V33.5769H53.1108V35.9432L50.5699 33.5769H49.9567V37.0114H50.716ZM65.423 37.0114C65.7776 37.0114 66.0695 36.9471 66.2704 36.7809C66.4714 36.6145 66.5502 36.3717 66.5502 36.0744V34.5139C66.5502 34.2166 66.4714 33.9738 66.2704 33.8075C66.0695 33.6412 65.7776 33.5769 65.423 33.5769H63.7096C63.355 33.5769 63.063 33.6412 62.8622 33.8075C62.6612 33.9738 62.5823 34.2166 62.5823 34.5139V36.0744C62.5823 36.3717 62.6612 36.6145 62.8622 36.7809C63.063 36.9471 63.355 37.0114 63.7096 37.0114H65.423ZM63.8405 36.4211C63.6207 36.4211 63.5124 36.3866 63.4541 36.3388C63.3963 36.2914 63.3525 36.2018 63.3525 36.0154V34.5729C63.3525 34.3865 63.3963 34.2969 63.4541 34.2495C63.5124 34.2018 63.6207 34.1672 63.8405 34.1672H65.292C65.5184 34.1672 65.6255 34.2021 65.6818 34.2489C65.7381 34.2958 65.78 34.3848 65.78 34.5729V36.0154C65.78 36.2035 65.7381 36.2926 65.6818 36.3394C65.6255 36.3862 65.5184 36.4211 65.292 36.4211H63.8405ZM78.3967 36.412H76.0393V33.5769H75.2691V37.0114H78.3967V36.412ZM78.2407 36.8818V36.5416H78.2407V36.8553H75.425V36.8818H78.2407ZM75.8834 36.5207V33.7065H75.425V33.733H75.8833V36.5207H75.8834ZM89.5737 37.0114C89.9282 37.0114 90.2202 36.9471 90.421 36.7809C90.622 36.6145 90.7009 36.3717 90.7009 36.0744V34.5139C90.7009 34.2166 90.622 33.9738 90.421 33.8075C90.2202 33.6412 89.9282 33.5769 89.5737 33.5769H87.8602C87.5056 33.5769 87.2137 33.6412 87.0128 33.8075C86.8119 33.9738 86.733 34.2166 86.733 34.5139V36.0744C86.733 36.3717 86.8119 36.6145 87.0128 36.7809C87.2137 36.9471 87.5056 37.0114 87.8602 37.0114H89.5737ZM87.9912 36.4211C87.7714 36.4211 87.663 36.3866 87.6048 36.3388C87.547 36.2914 87.5032 36.2018 87.5032 36.0154V34.5729C87.5032 34.3865 87.547 34.2969 87.6048 34.2495C87.663 34.2018 87.7714 34.1672 87.9912 34.1672H89.4427C89.669 34.1672 89.7761 34.2021 89.8324 34.2489C89.8888 34.2958 89.9307 34.3848 89.9307 34.5729V36.0154C89.9307 36.2035 89.8888 36.2926 89.8324 36.3394C89.7761 36.3862 89.669 36.4211 89.4427 36.4211H87.9912ZM103.053 36.7809C103.254 36.6145 103.333 36.3717 103.333 36.0744V35.1237H101.33V35.6869H102.574V36.029C102.574 36.2171 102.532 36.3062 102.476 36.353C102.419 36.3998 102.312 36.4347 102.086 36.4347H100.623C100.406 36.4347 100.297 36.3986 100.238 36.3496C100.179 36.3006 100.135 36.2099 100.135 36.029V34.5638C100.135 34.3775 100.179 34.2879 100.237 34.2405C100.295 34.1927 100.404 34.1582 100.623 34.1582H102.075C102.301 34.1582 102.408 34.193 102.465 34.2399C102.521 34.2867 102.563 34.3757 102.563 34.5638V34.8114H103.333V34.5139C103.333 34.2166 103.254 33.9738 103.053 33.8075C102.852 33.6412 102.56 33.5769 102.206 33.5769H100.492C100.138 33.5769 99.8459 33.6412 99.6451 33.8075C99.4441 33.9738 99.3652 34.2166 99.3652 34.5139V36.0744C99.3652 36.3717 99.4441 36.6145 99.6451 36.7809C99.8459 36.9471 100.138 37.0114 100.492 37.0114H102.206C102.56 37.0114 102.852 36.9471 103.053 36.7809ZM101.486 35.2533V35.254H103.177V36.0613C103.177 36.6144 102.877 36.8553 102.206 36.8553H100.492C99.8308 36.8553 99.5297 36.6213 99.5211 36.0852C99.521 36.0773 99.5209 36.0693 99.5209 36.0613V34.5269M101.486 35.5528V35.5572H102.73V35.5528H101.486ZM101.486 35.2533H103.177H101.486ZM103.177 35.2533V36.0744V35.2533ZM103.177 36.0744C103.177 36.6368 102.877 36.8818 102.206 36.8818L103.177 36.0744ZM102.206 36.8818H100.492H102.206ZM100.492 36.8818C99.8255 36.8818 99.525 36.64 99.5211 36.0852L100.492 36.8818ZM100.492 33.7065C99.8256 33.7065 99.525 33.9483 99.5211 34.503C99.5211 34.5066 99.5211 34.5103 99.5211 34.5139V36.0744M100.492 33.7065H102.206H100.492ZM102.206 33.7065C102.877 33.7065 103.177 33.9515 103.177 34.5139L102.206 33.7065ZM103.177 34.5139V34.6818V34.5139ZM103.177 34.6818H103.177H103.177ZM103.177 34.6818V34.5269C103.177 33.9738 102.877 33.733 102.206 33.733H100.492C99.8308 33.733 99.5298 33.9669 99.5211 34.503M99.9795 34.5548C99.9794 34.5618 99.9793 34.5688 99.9793 34.576V36.0167M99.9795 34.5548C99.9795 34.5578 99.9795 34.5608 99.9795 34.5638V36.029M112.855 33.5769H112.085V37.0114H112.855V33.5769ZM112.241 36.8818H112.699V33.7065H112.241V33.733H112.699V36.8553H112.241V36.8818ZM65.423 36.8818C66.0942 36.8818 66.3943 36.6368 66.3943 36.0744V34.5139C66.3943 33.9515 66.0942 33.7065 65.423 33.7065H63.7096C63.0384 33.7065 62.7382 33.9515 62.7382 34.5139V34.5269C62.7382 33.9738 63.0384 33.733 63.7096 33.733H65.423C66.0942 33.733 66.3943 33.9738 66.3943 34.5269V36.0613C66.3943 36.6144 66.0942 36.8553 65.423 36.8553H63.7096C63.0384 36.8553 62.7382 36.6144 62.7382 36.0613V36.0744C62.7382 36.6368 63.0384 36.8818 63.7096 36.8818H65.423ZM89.5737 36.8818C90.2449 36.8818 90.545 36.6368 90.545 36.0744V34.5139C90.545 33.9515 90.2449 33.7065 89.5737 33.7065H87.8602C87.191 33.7065 86.8907 33.95 86.8889 34.509C86.8954 33.9686 87.1962 33.733 87.8601 33.733H89.5736C90.2448 33.733 90.5449 33.9738 90.5449 34.5269V36.0613C90.5449 36.6144 90.2448 36.8553 89.5736 36.8553H87.8601C87.1962 36.8553 86.8954 36.6196 86.8889 36.0793C86.8906 36.6383 87.191 36.8818 87.8602 36.8818H89.5737ZM87.3473 34.5688C87.3472 34.5741 87.3472 34.5795 87.3472 34.5849V36.0033C87.3472 36.0087 87.3472 36.0141 87.3473 36.0194C87.3473 36.0181 87.3473 36.0168 87.3473 36.0154V34.5729C87.3473 34.5715 87.3473 34.5702 87.3473 34.5688Z" fill="white"/>
<rect x="12.4739" y="31.0791" width="102.411" height="0.468341" fill="white"/>
</svg>
